<?xml version="1.0" encoding="UTF-8" standalone="no"?>

<svg viewBox="0 0 43 32" version="1.1" xmlns="http://www.w3.org/2000/svg" xmlns:xlink="http://www.w3.org/1999/xlink" width="43px" height="32px">
<title>logo-desktop</title>
<path fill="#f7981d" style="fill: var(--color1, #f7981d)" d="M21.542 0l-0.888 2.695-1.507-2.404-0.217 2.829-2.038-1.974 0.466 2.799-2.451-1.428 1.122 2.606-2.722-0.8 1.714 2.261-2.835-0.126 2.205 1.786-2.782 0.556 2.568 1.206-2.568 1.206 2.782 0.556-2.205 1.786 2.835-0.126-1.714 2.261 2.722-0.8-1.123 2.606 2.452-1.428-0.466 2.799 2.038-1.974 0.217 2.829 1.507-2.404 0.888 2.695 0.888-2.695 1.507 2.404 0.217-2.829 2.038 1.974-0.466-2.799 2.451 1.428-1.123-2.606 2.722 0.8-1.714-2.261 2.835 0.126-2.205-1.786 2.782-0.556-2.568-1.206 2.568-1.206-2.782-0.556 2.205-1.786-2.835 0.126 1.714-2.261-2.722 0.8 1.123-2.606-2.451 1.428 0.466-2.799-2.038 1.974-0.217-2.829-1.507 2.404z"></path>
<path fill="#000" style="fill: var(--color2, #000)" d="M25.286 14.305c0 0.339-1.681 0.614-3.753 0.614s-3.753-0.275-3.753-0.614 1.68-0.614 3.753-0.614c2.073 0 3.753 0.275 3.753 0.614z"></path>
<path fill="#fff" style="fill: var(--color3, #fff)" d="M25.246 10.881c-0.017 0-0.034-0.002-0.050-0.003v-2.309c0.017-0.001 0.033-0.003 0.050-0.003 0.638 0 1.157 0.519 1.157 1.157s-0.519 1.157-1.157 1.157zM25.246 7.787c-0.017 0-0.034 0.001-0.050 0.001v-1.033c0-0.756-1.763-0.911-3.656-0.911s-3.597 0.213-3.597 0.969v5.256c0 0.79 0.677 1.988 3.597 1.988s3.656-1.143 3.656-2.047v-0.35c0.017 0 0.033 0.001 0.050 0.001 1.068 0 1.938-0.869 1.938-1.938s-0.869-1.938-1.938-1.938z"></path>
<path fill="#971b1e" style="fill: var(--color4, #971b1e)" d="M25.642 10.315v-1.181c0.19 0.128 0.316 0.345 0.316 0.591s-0.125 0.463-0.316 0.591zM21.54 5.399c-1.099 0-1.976 0.071-2.606 0.212-0.405 0.090-0.714 0.209-0.943 0.362-0.409 0.272-0.494 0.608-0.494 0.841v5.256c0 0.37 0.115 1.075 0.883 1.648 0.7 0.522 1.763 0.786 3.161 0.786 1.411 0 2.482-0.259 3.185-0.77 0.572-0.416 0.896-1.003 0.916-1.659 1.127-0.189 1.989-1.171 1.989-2.351s-0.861-2.162-1.988-2.351v-0.619c0-0.237-0.089-0.576-0.516-0.84-0.234-0.145-0.548-0.255-0.962-0.336-0.625-0.123-1.459-0.18-2.624-0.18zM25.246 10.881c0.638 0 1.157-0.519 1.157-1.157s-0.519-1.157-1.157-1.157c-0.017 0-0.033 0.002-0.050 0.003v2.309c0.017 0.001 0.033 0.002 0.050 0.002zM21.54 5.844c1.893 0 3.656 0.154 3.656 0.91v1.033c0.017-0 0.034-0.001 0.050-0.001 1.068 0 1.938 0.869 1.938 1.938s-0.869 1.938-1.938 1.938c-0.017 0-0.034-0.001-0.050-0.001v0.35c0 0.904-0.735 2.047-3.656 2.047s-3.597-1.198-3.597-1.988v-5.256c0-0.756 1.704-0.969 3.597-0.969z"></path>
<path fill="#f7981d" style="fill: var(--color1, #f7981d)" d="M21.542 13.565c-2.732 0-3.14-1.158-3.14-1.849v-4.069c0-0.108 0.087-0.195 0.195-0.195s0.195 0.087 0.195 0.195v4.069c0 1.269 1.723 1.459 2.75 1.459 0.108 0 0.195 0.087 0.195 0.195s-0.087 0.195-0.195 0.195z"></path>
<path fill="#000" style="fill: var(--color2, #000)" d="M24.599 6.829c0 0.277-1.373 0.502-3.066 0.502s-3.066-0.225-3.066-0.502 1.373-0.502 3.066-0.502c1.693 0 3.066 0.225 3.066 0.502z"></path>
<path fill="#971b1e" style="fill: var(--color4, #971b1e)" d="M2.677 25.37v1.363c0 0.727-0.36 1.087-1.087 1.087h-0.443c-0.727 0-1.087-0.36-1.087-1.087v-3.779c0-0.727 0.359-1.087 1.087-1.087h0.435c0.727 0 1.079 0.351 1.079 1.079v1.196h-0.878v-1.145c0-0.234-0.109-0.343-0.334-0.343h-0.15c-0.234 0-0.343 0.109-0.343 0.343v3.696c0 0.234 0.109 0.343 0.343 0.343h0.167c0.226 0 0.334-0.109 0.334-0.343v-1.321h0.878z"></path>
<path fill="#971b1e" style="fill: var(--color4, #971b1e)" d="M5.002 22.653h-0.184c-0.234 0-0.343 0.109-0.343 0.343v3.696c0 0.234 0.109 0.343 0.343 0.343h0.184c0.226 0 0.334-0.109 0.334-0.343v-3.696c0-0.234-0.109-0.343-0.334-0.343zM5.144 27.82h-0.477c-0.727 0-1.087-0.36-1.087-1.087v-3.779c0-0.727 0.36-1.087 1.087-1.087h0.477c0.727 0 1.087 0.36 1.087 1.087v3.779c0 0.727-0.36 1.087-1.087 1.087z"></path>
<path fill="#971b1e" style="fill: var(--color4, #971b1e)" d="M9.116 21.917v0.811h-1.053v1.689h1.012v0.811h-1.012v2.542h-0.895v-5.853z"></path>
<path fill="#971b1e" style="fill: var(--color4, #971b1e)" d="M11.925 21.917v0.811h-1.053v1.689h1.012v0.811h-1.012v2.542h-0.895v-5.853z"></path>
<path fill="#971b1e" style="fill: var(--color4, #971b1e)" d="M14.776 21.917v0.811h-1.095v1.656h1.053v0.811h-1.053v1.764h1.112v0.811h-2.007v-5.853z"></path>
<path fill="#971b1e" style="fill: var(--color4, #971b1e)" d="M17.678 21.917v0.811h-1.095v1.656h1.053v0.811h-1.053v1.764h1.112v0.811h-2.007v-5.853z"></path>
<path fill="#971b1e" style="fill: var(--color4, #971b1e)" d="M22.018 21.917v0.811h-1.053v1.689h1.012v0.811h-1.012v2.542h-0.895v-5.853z"></path>
<path fill="#971b1e" style="fill: var(--color4, #971b1e)" d="M24.284 22.653h-0.184c-0.234 0-0.343 0.109-0.343 0.343v3.696c0 0.234 0.109 0.343 0.343 0.343h0.184c0.226 0 0.334-0.109 0.334-0.343v-3.696c0-0.234-0.109-0.343-0.334-0.343zM24.426 27.82h-0.477c-0.727 0-1.087-0.36-1.087-1.087v-3.779c0-0.727 0.36-1.087 1.087-1.087h0.477c0.727 0 1.087 0.36 1.087 1.087v3.779c0 0.727-0.36 1.087-1.087 1.087z"></path>
<path fill="#971b1e" style="fill: var(--color4, #971b1e)" d="M27.779 22.712h-0.435v1.931h0.401c0.251 0 0.368-0.117 0.368-0.36v-1.237c0-0.226-0.109-0.334-0.334-0.334zM29.016 25.78v1.99h-0.895v-1.973c0-0.259-0.117-0.376-0.376-0.376h-0.401v2.349h-0.895v-5.853h1.472c0.727 0 1.087 0.36 1.087 1.087v1.104c0 0.518-0.184 0.769-0.51 0.903 0.368 0.1 0.518 0.326 0.518 0.769z"></path>
<path fill="#971b1e" style="fill: var(--color4, #971b1e)" d="M32.327 21.917v5.042h0.987v0.811h-1.881v-5.853z"></path>
<path fill="#971b1e" style="fill: var(--color4, #971b1e)" d="M36.132 21.917v0.811h-1.095v1.656h1.053v0.811h-1.053v1.764h1.112v0.811h-2.007v-5.853z"></path>
<path fill="#971b1e" style="fill: var(--color4, #971b1e)" d="M39.568 25.78v0.953c0 0.727-0.36 1.087-1.087 1.087h-0.393c-0.727 0-1.079-0.36-1.079-1.079v-1.237h0.87v1.204c0 0.226 0.109 0.334 0.343 0.334h0.117c0.234 0 0.343-0.109 0.343-0.334v-0.803c0-0.243-0.084-0.351-0.251-0.477l-0.903-0.66c-0.401-0.284-0.518-0.56-0.518-1.012v-0.803c0-0.727 0.36-1.087 1.087-1.087h0.376c0.719 0 1.079 0.36 1.079 1.079v1.062h-0.878v-1.028c0-0.226-0.109-0.334-0.334-0.334h-0.109c-0.226 0-0.334 0.109-0.334 0.334v0.652c0 0.242 0.084 0.36 0.251 0.477l0.903 0.661c0.393 0.284 0.518 0.535 0.518 1.012z"></path>
<path fill="#971b1e" style="fill: var(--color4, #971b1e)" d="M43.005 25.78v0.953c0 0.727-0.36 1.087-1.087 1.087h-0.393c-0.727 0-1.079-0.36-1.079-1.079v-1.237h0.87v1.204c0 0.226 0.109 0.334 0.343 0.334h0.117c0.234 0 0.343-0.109 0.343-0.334v-0.803c0-0.243-0.084-0.351-0.251-0.477l-0.903-0.66c-0.401-0.284-0.518-0.56-0.518-1.012v-0.803c0-0.727 0.36-1.087 1.087-1.087h0.376c0.719 0 1.079 0.36 1.079 1.079v1.062h-0.878v-1.028c0-0.226-0.109-0.334-0.334-0.334h-0.109c-0.226 0-0.334 0.109-0.334 0.334v0.652c0 0.242 0.084 0.36 0.251 0.477l0.903 0.661c0.393 0.284 0.518 0.535 0.518 1.012z"></path>
<path fill="#000" style="fill: var(--color2, #000)" d="M17.062 29.434v0.247h-0.468v0.776h0.451v0.244h-0.451v0.826h0.475v0.247h-0.742v-2.341z"></path>
<path fill="#000" style="fill: var(--color2, #000)" d="M18.55 31.019v0.341c0 0.291-0.144 0.435-0.435 0.435h-0.074c-0.288 0-0.428-0.144-0.428-0.428v-0.492h0.261v0.502c0 0.12 0.057 0.177 0.177 0.177h0.053c0.12 0 0.177-0.057 0.177-0.177v-0.351c0-0.117-0.040-0.167-0.117-0.224l-0.328-0.237c-0.174-0.124-0.224-0.244-0.224-0.435v-0.281c0-0.291 0.144-0.435 0.435-0.435h0.067c0.288 0 0.428 0.144 0.428 0.428v0.421h-0.261v-0.431c0-0.12-0.057-0.177-0.177-0.177h-0.047c-0.12 0-0.177 0.057-0.177 0.177v0.294c0 0.117 0.043 0.167 0.12 0.224l0.324 0.234c0.171 0.124 0.224 0.234 0.224 0.435z"></path>
<path fill="#000" style="fill: var(--color2, #000)" d="M19.346 31.775v-2.094h-0.351v-0.247h0.97v0.247h-0.351v2.094z"></path>
<path fill="#000" style="fill: var(--color2, #000)" d="M20.266 31.775h0.261v-0.388h-0.261z"></path>
<path fill="#000" style="fill: var(--color2, #000)" d="M22.199 31.775h-0.254v-1.923h-0.221v-0.207c0.147-0.013 0.214-0.057 0.298-0.167l0.040-0.053h0.137v2.351z"></path>
<path fill="#000" style="fill: var(--color2, #000)" d="M23.473 29.835c0-0.12-0.057-0.177-0.171-0.177h-0.064c-0.114 0-0.171 0.057-0.171 0.177v0.575c0 0.134 0.064 0.191 0.177 0.191 0.080 0 0.174-0.023 0.227-0.050v-0.716zM23.473 31.374v-0.595c-0.080 0.043-0.174 0.070-0.278 0.070h-0.010c-0.237 0-0.378-0.157-0.378-0.388v-0.612c0-0.291 0.144-0.435 0.435-0.435h0.060c0.291 0 0.435 0.144 0.435 0.435v1.512c0 0.291-0.144 0.435-0.435 0.435h-0.064c-0.294 0-0.428-0.127-0.428-0.421v-0.298h0.257v0.298c0 0.12 0.057 0.177 0.171 0.177h0.064c0.114 0 0.171-0.057 0.171-0.177v0z"></path>
<path fill="#000" style="fill: var(--color2, #000)" d="M24.236 29.681v-0.247h0.819v0.241l-0.462 2.1h-0.254l0.462-2.094z"></path>
<path fill="#000" style="fill: var(--color2, #000)" d="M26.497 31.36c0 0.291-0.144 0.435-0.428 0.435h-0.067c-0.281 0-0.421-0.141-0.421-0.428v-0.405h0.261v0.411c0 0.12 0.057 0.177 0.171 0.177h0.047c0.114 0 0.171-0.057 0.171-0.177v-0.635c0-0.127-0.047-0.187-0.154-0.187-0.087 0-0.16 0.033-0.257 0.134h-0.224v-1.251h0.869v0.247h-0.622l-0.007 0.732c0.080-0.064 0.174-0.11 0.301-0.11 0.214 0 0.361 0.144 0.361 0.385v0.672z"></path>
</svg>
